<svg width="699" height="120" viewBox="0 0 699 120" fill="none" xmlns="http://www.w3.org/2000/svg">
<path d="M42.7347 18L40.5949 24.5569C38.2641 25.5345 35.9332 26.5122 33.6027 27.4905C31.1298 26.9854 28.6506 26.4003 26.1448 26.1071C25.7492 26.5389 15.74 41.4691 15.7429 41.6233C16.204 42.7185 16.9959 43.6606 17.5949 44.6855L54 57.0884L90.4051 44.6855C91.0041 43.6606 91.796 42.7185 92.2571 41.6233C92.2591 41.4691 82.2508 26.5389 81.8552 26.1071C79.3494 26.4003 76.8702 26.9854 74.3973 27.4905C72.0668 26.5122 69.7359 25.5345 67.4051 24.5569L65.2653 18H42.7347ZM20.3675 49.1964C20.3224 49.183 20.2316 49.2482 20.2283 49.2703C19.7897 52.7381 18.9328 59.6762 18.9328 59.6762L21.151 68.9771L37.9328 76.3719L53.9999 70.5444L70.067 76.3719L86.8488 68.9771L89.0671 59.6762C89.0671 59.6762 88.2101 52.7381 87.7716 49.2703C87.7676 49.2407 87.6074 49.1337 87.6074 49.2419C76.6214 53.0296 65.1616 56.6979 53.9998 60.4339C42.838 56.6979 31.3783 53.0296 20.3922 49.2419C20.3922 49.2148 20.3825 49.2012 20.3675 49.1964ZM28.8075 57.4861C34.0783 59.2495 39.3923 61.0008 44.7061 62.7519C44.6262 63.292 44.4915 63.8231 44.3041 64.3376C43.518 66.4019 41.9186 68.0788 39.8576 68.9994C37.7966 69.9201 35.4428 70.0091 33.3142 69.2469C31.1855 68.4847 29.4563 66.9336 28.5069 64.935C27.5575 62.9364 27.4657 60.6539 28.2516 58.5896C28.4086 58.209 28.5943 57.8401 28.8075 57.4861ZM79.1925 57.4861C79.4057 57.8401 79.5915 58.209 79.7484 58.5896C80.5344 60.6539 80.4426 62.9364 79.4931 64.935C78.5437 66.9336 76.8145 68.4847 74.6858 69.2469C72.5571 70.0091 70.2034 69.9201 68.1424 68.9994C66.0814 68.0788 64.482 66.4019 63.6959 64.3376C63.5085 63.8231 63.3738 63.292 63.2939 62.7519C68.6077 61.0008 73.9217 59.2495 79.1925 57.4861ZM16.03 63.3725L12 67.245L18.0372 87.7742L37.1186 95.3643L36.0918 79.3944L17.9962 71.2283L16.03 63.3725ZM91.9701 63.3725L90.0038 71.2283L71.9082 79.3944L70.8814 95.3643L89.9628 87.7742L96 67.245L91.9701 63.3725ZM54 73.9468L39.6912 79.4384L40.5597 96.6902L54 102L67.4403 96.6902L68.3088 79.4384L54 73.9468Z" fill="url(#paint0_linear_930_3925)"/>
<path d="M126.432 94V29.872H153.984C161.92 29.872 167.968 31.536 172.128 34.864C176.352 38.192 178.464 43.184 178.464 49.84C178.464 55.152 177.152 59.344 174.528 62.416C171.904 65.424 168.128 67.504 163.2 68.656L181.728 94H165.312L148.608 69.712H140.448V94H126.432ZM140.448 58.672H151.68C156.096 58.672 159.296 58 161.28 56.656C163.328 55.248 164.352 53.008 164.352 49.936C164.352 46.8 163.36 44.56 161.376 43.216C159.392 41.808 156.16 41.104 151.68 41.104H140.448V58.672ZM209.135 94.96C204.463 94.96 200.207 94.096 196.367 92.368C192.527 90.576 189.455 87.952 187.151 84.496C184.847 80.976 183.695 76.624 183.695 71.44C183.695 66.64 184.751 62.48 186.863 58.96C188.975 55.44 191.823 52.72 195.407 50.8C198.991 48.88 203.023 47.92 207.503 47.92C212.047 47.92 216.015 48.752 219.407 50.416C222.863 52.08 225.551 54.416 227.471 57.424C229.391 60.368 230.351 63.76 230.351 67.6C230.351 68.752 230.191 70.032 229.871 71.44C229.551 72.784 229.135 73.936 228.623 74.896H197.231C197.551 76.944 198.255 78.672 199.343 80.08C200.431 81.424 201.935 82.448 203.855 83.152C205.775 83.856 207.983 84.208 210.479 84.208C213.103 84.208 215.567 83.824 217.871 83.056C220.175 82.224 222.351 81.136 224.399 79.792L228.431 89.104C225.679 91.024 222.671 92.496 219.407 93.52C216.207 94.48 212.783 94.96 209.135 94.96ZM197.231 66.256H216.719C216.783 66.128 216.815 66 216.815 65.872C216.815 65.744 216.815 65.552 216.815 65.296C216.815 63.824 216.495 62.576 215.855 61.552C215.215 60.464 214.223 59.632 212.879 59.056C211.599 58.416 209.935 58.096 207.887 58.096C206.031 58.096 204.335 58.448 202.799 59.152C201.327 59.792 200.111 60.72 199.151 61.936C198.191 63.152 197.551 64.592 197.231 66.256ZM257.093 94.96C253.061 94.96 249.413 94.032 246.149 92.176C242.885 90.256 240.293 87.536 238.373 84.016C236.453 80.432 235.493 76.24 235.493 71.44C235.493 66.576 236.453 62.384 238.373 58.864C240.293 55.344 242.885 52.656 246.149 50.8C249.413 48.88 253.061 47.92 257.093 47.92C260.165 47.92 262.853 48.464 265.157 49.552C267.461 50.576 269.317 51.984 270.725 53.776V29.872H284.069V94H271.493V88.24C270.085 90.288 268.133 91.92 265.637 93.136C263.205 94.352 260.357 94.96 257.093 94.96ZM260.165 83.44C262.405 83.44 264.357 82.96 266.021 82C267.685 81.04 268.997 79.664 269.957 77.872C270.917 76.016 271.397 73.872 271.397 71.44C271.397 68.944 270.917 66.8 269.957 65.008C268.997 63.216 267.685 61.84 266.021 60.88C264.357 59.92 262.405 59.44 260.165 59.44C257.989 59.44 256.037 59.92 254.309 60.88C252.645 61.84 251.333 63.216 250.373 65.008C249.477 66.8 249.029 68.944 249.029 71.44C249.029 73.872 249.477 76.016 250.373 77.872C251.333 79.664 252.645 81.04 254.309 82C256.037 82.96 257.989 83.44 260.165 83.44ZM316.091 94.96C311.291 94.96 307.003 94 303.227 92.08C299.515 90.096 296.603 87.344 294.491 83.824C292.379 80.24 291.323 76.112 291.323 71.44C291.323 66.704 292.379 62.576 294.491 59.056C296.603 55.536 299.515 52.816 303.227 50.896C306.939 48.912 311.227 47.92 316.091 47.92C320.955 47.92 325.243 48.912 328.955 50.896C332.667 52.816 335.579 55.536 337.691 59.056C339.803 62.576 340.859 66.704 340.859 71.44C340.859 76.112 339.803 80.24 337.691 83.824C335.579 87.344 332.667 90.096 328.955 92.08C325.243 94 320.955 94.96 316.091 94.96ZM316.091 83.44C318.331 83.44 320.283 82.96 321.947 82C323.675 81.04 324.987 79.664 325.883 77.872C326.843 76.016 327.323 73.872 327.323 71.44C327.323 68.944 326.843 66.8 325.883 65.008C324.987 63.216 323.675 61.84 321.947 60.88C320.283 59.92 318.331 59.44 316.091 59.44C313.851 59.44 311.867 59.92 310.139 60.88C308.475 61.84 307.163 63.216 306.203 65.008C305.307 66.8 304.859 68.944 304.859 71.44C304.859 73.872 305.307 76.016 306.203 77.872C307.163 79.664 308.475 81.04 310.139 82C311.867 82.96 313.851 83.44 316.091 83.44ZM369.356 94.576C363.724 94.576 359.66 93.36 357.164 90.928C354.732 88.496 353.516 84.752 353.516 79.696V59.728H344.396V48.88H353.516V36.016H366.86V48.88H377.804V59.728H366.86V78.352C366.86 80.144 367.308 81.488 368.204 82.384C369.164 83.28 370.54 83.728 372.332 83.728C373.1 83.728 374.028 83.696 375.116 83.632C376.204 83.568 377.1 83.472 377.804 83.344V93.616C376.716 93.936 375.404 94.16 373.868 94.288C372.396 94.48 370.892 94.576 369.356 94.576Z" fill="white"/>
<path d="M405.912 94V29.872H437.112C442.296 29.872 446.616 30.448 450.072 31.6C453.592 32.752 456.216 34.544 457.944 36.976C459.736 39.344 460.632 42.48 460.632 46.384C460.632 49.968 459.832 53.008 458.232 55.504C456.632 57.936 454.008 59.76 450.36 60.976C454.648 62.064 457.752 63.92 459.672 66.544C461.592 69.168 462.552 72.496 462.552 76.528C462.552 82.544 460.504 86.96 456.408 89.776C452.312 92.592 445.848 94 437.016 94H405.912ZM419.928 82.768H435.384C438.584 82.768 441.112 82.512 442.968 82C444.888 81.424 446.264 80.528 447.096 79.312C447.928 78.096 448.344 76.496 448.344 74.512C448.344 72.528 447.928 70.928 447.096 69.712C446.264 68.496 444.888 67.632 442.968 67.12C441.112 66.544 438.584 66.256 435.384 66.256H419.928V82.768ZM419.928 55.696H435.384C439.544 55.696 442.424 55.152 444.024 54.064C445.624 52.912 446.424 51.024 446.424 48.4C446.424 45.84 445.624 43.984 444.024 42.832C442.488 41.68 439.608 41.104 435.384 41.104H419.928V55.696ZM469.976 94V29.872H483.224V94H469.976ZM515.366 94.96C510.566 94.96 506.278 94 502.502 92.08C498.79 90.096 495.878 87.344 493.766 83.824C491.654 80.24 490.598 76.112 490.598 71.44C490.598 66.704 491.654 62.576 493.766 59.056C495.878 55.536 498.79 52.816 502.502 50.896C506.214 48.912 510.502 47.92 515.366 47.92C520.23 47.92 524.518 48.912 528.23 50.896C531.942 52.816 534.854 55.536 536.966 59.056C539.078 62.576 540.134 66.704 540.134 71.44C540.134 76.112 539.078 80.24 536.966 83.824C534.854 87.344 531.942 90.096 528.23 92.08C524.518 94 520.23 94.96 515.366 94.96ZM515.366 83.44C517.606 83.44 519.558 82.96 521.222 82C522.95 81.04 524.262 79.664 525.158 77.872C526.118 76.016 526.598 73.872 526.598 71.44C526.598 68.944 526.118 66.8 525.158 65.008C524.262 63.216 522.95 61.84 521.222 60.88C519.558 59.92 517.606 59.44 515.366 59.44C513.126 59.44 511.142 59.92 509.414 60.88C507.75 61.84 506.438 63.216 505.478 65.008C504.582 66.8 504.134 68.944 504.134 71.44C504.134 73.872 504.582 76.016 505.478 77.872C506.438 79.664 507.75 81.04 509.414 82C511.142 82.96 513.126 83.44 515.366 83.44ZM570.071 94.96C565.271 94.96 560.983 94 557.207 92.08C553.495 90.096 550.583 87.344 548.471 83.824C546.359 80.24 545.303 76.112 545.303 71.44C545.303 66.704 546.359 62.576 548.471 59.056C550.583 55.536 553.495 52.816 557.207 50.896C560.983 48.912 565.271 47.92 570.071 47.92C573.271 47.92 576.215 48.368 578.903 49.264C581.655 50.096 584.247 51.376 586.679 53.104L582.071 63.088C579.959 61.808 577.943 60.88 576.023 60.304C574.103 59.728 572.119 59.44 570.071 59.44C567.831 59.44 565.847 59.92 564.119 60.88C562.455 61.776 561.143 63.152 560.183 65.008C559.287 66.8 558.839 68.944 558.839 71.44C558.839 73.936 559.287 76.08 560.183 77.872C561.143 79.664 562.455 81.04 564.119 82C565.847 82.96 567.831 83.44 570.071 83.44C572.119 83.44 574.103 83.152 576.023 82.576C577.943 82 579.959 81.072 582.071 79.792L586.679 89.776C584.247 91.504 581.655 92.816 578.903 93.712C576.215 94.544 573.271 94.96 570.071 94.96ZM593.497 94V29.872H606.745V66.544L623.449 48.88H638.713L621.049 67.12L639.673 94H624.217L612.121 76.336L606.745 82V94H593.497ZM661.726 94.96C658.334 94.96 655.038 94.48 651.838 93.52C648.638 92.56 645.534 91.12 642.526 89.2L647.038 79.6C650.11 81.456 652.894 82.832 655.39 83.728C657.886 84.56 660.094 84.976 662.014 84.976C664.318 84.976 666.046 84.656 667.198 84.016C668.35 83.376 668.926 82.384 668.926 81.04C668.926 79.952 668.542 79.12 667.774 78.544C667.006 77.968 665.63 77.52 663.646 77.2L657.694 76.144C653.086 75.312 649.63 73.84 647.326 71.728C645.086 69.616 643.966 66.832 643.966 63.376C643.966 60.56 644.638 58 645.982 55.696C647.39 53.328 649.502 51.44 652.318 50.032C655.134 48.624 658.782 47.92 663.262 47.92C666.526 47.92 669.662 48.368 672.67 49.264C675.678 50.16 678.462 51.376 681.022 52.912L676.606 62.032C674.558 60.944 672.382 59.984 670.078 59.152C667.838 58.32 665.726 57.904 663.742 57.904C661.63 57.904 660.062 58.224 659.038 58.864C658.014 59.504 657.502 60.432 657.502 61.648C657.502 62.48 657.822 63.152 658.462 63.664C659.166 64.176 660.446 64.592 662.302 64.912L668.254 65.968C672.862 66.8 676.382 68.336 678.814 70.576C681.246 72.752 682.462 75.728 682.462 79.504C682.462 83.984 680.734 87.696 677.278 90.64C673.822 93.52 668.638 94.96 661.726 94.96Z" fill="url(#paint1_linear_930_3925)"/>
<defs>
<linearGradient id="paint0_linear_930_3925" x1="25.3763" y1="27.3982" x2="112.348" y2="119.812" gradientUnits="userSpaceOnUse">
<stop stop-color="#FF1300"/>
<stop offset="1" stop-color="#FF6E01"/>
</linearGradient>
<linearGradient id="paint1_linear_930_3925" x1="210.29" y1="22.7408" x2="241.239" y2="216.969" gradientUnits="userSpaceOnUse">
<stop stop-color="#FF1300"/>
<stop offset="1" stop-color="#FF6E01"/>
</linearGradient>
</defs>
</svg>
